<mxfile host="app.diagrams.net" agent="Mozilla/5.0 (Windows NT 10.0; Win64; x64) AppleWebKit/537.36 (KHTML, like Gecko) Chrome/131.0.0.0 Safari/537.36" version="24.8.6">
  <diagram name="Page-1" id="SXcJZMoiMjdgK5n2fo-d">
    <mxGraphModel dx="2284" dy="822" grid="1" gridSize="10" guides="1" tooltips="1" connect="1" arrows="1" fold="1" page="1" pageScale="1" pageWidth="850" pageHeight="1100" math="0" shadow="0">
      <root>
        <mxCell id="0" />
        <mxCell id="1" parent="0" />
        <mxCell id="0XBhOKkoEBxMwg9nU0cD-5" value="" style="edgeStyle=orthogonalEdgeStyle;rounded=0;orthogonalLoop=1;jettySize=auto;html=1;" parent="1" source="0XBhOKkoEBxMwg9nU0cD-3" target="0XBhOKkoEBxMwg9nU0cD-4" edge="1">
          <mxGeometry relative="1" as="geometry" />
        </mxCell>
        <mxCell id="0XBhOKkoEBxMwg9nU0cD-3" value="START" style="strokeWidth=2;html=1;shape=mxgraph.flowchart.start_1;whiteSpace=wrap;" parent="1" vertex="1">
          <mxGeometry x="330" y="20" width="200" height="60" as="geometry" />
        </mxCell>
        <mxCell id="0XBhOKkoEBxMwg9nU0cD-7" value="" style="edgeStyle=orthogonalEdgeStyle;rounded=0;orthogonalLoop=1;jettySize=auto;html=1;" parent="1" source="0XBhOKkoEBxMwg9nU0cD-4" target="0XBhOKkoEBxMwg9nU0cD-6" edge="1">
          <mxGeometry relative="1" as="geometry" />
        </mxCell>
        <mxCell id="0XBhOKkoEBxMwg9nU0cD-4" value="Melakukan Registrasi" style="whiteSpace=wrap;html=1;strokeWidth=2;" parent="1" vertex="1">
          <mxGeometry x="350" y="120" width="160" height="60" as="geometry" />
        </mxCell>
        <mxCell id="0XBhOKkoEBxMwg9nU0cD-9" value="ya" style="edgeStyle=orthogonalEdgeStyle;rounded=0;orthogonalLoop=1;jettySize=auto;html=1;" parent="1" source="0XBhOKkoEBxMwg9nU0cD-6" target="0XBhOKkoEBxMwg9nU0cD-8" edge="1">
          <mxGeometry relative="1" as="geometry" />
        </mxCell>
        <mxCell id="0XBhOKkoEBxMwg9nU0cD-17" value="tidak" style="edgeStyle=orthogonalEdgeStyle;rounded=0;orthogonalLoop=1;jettySize=auto;html=1;" parent="1" source="0XBhOKkoEBxMwg9nU0cD-6" target="0XBhOKkoEBxMwg9nU0cD-16" edge="1">
          <mxGeometry relative="1" as="geometry" />
        </mxCell>
        <mxCell id="0XBhOKkoEBxMwg9nU0cD-6" value="PENGGUNA BARU" style="rhombus;whiteSpace=wrap;html=1;strokeWidth=2;" parent="1" vertex="1">
          <mxGeometry x="315" y="230" width="230" height="80" as="geometry" />
        </mxCell>
        <mxCell id="0XBhOKkoEBxMwg9nU0cD-11" value="" style="edgeStyle=orthogonalEdgeStyle;rounded=0;orthogonalLoop=1;jettySize=auto;html=1;" parent="1" source="0XBhOKkoEBxMwg9nU0cD-8" target="0XBhOKkoEBxMwg9nU0cD-10" edge="1">
          <mxGeometry relative="1" as="geometry" />
        </mxCell>
        <mxCell id="0XBhOKkoEBxMwg9nU0cD-8" value="SIGN UP" style="whiteSpace=wrap;html=1;strokeWidth=2;" parent="1" vertex="1">
          <mxGeometry x="-5" y="240" width="120" height="60" as="geometry" />
        </mxCell>
        <mxCell id="0XBhOKkoEBxMwg9nU0cD-15" value="" style="edgeStyle=orthogonalEdgeStyle;rounded=0;orthogonalLoop=1;jettySize=auto;html=1;" parent="1" source="0XBhOKkoEBxMwg9nU0cD-10" target="0XBhOKkoEBxMwg9nU0cD-14" edge="1">
          <mxGeometry relative="1" as="geometry" />
        </mxCell>
        <mxCell id="0XBhOKkoEBxMwg9nU0cD-10" value="INPUT BIODATA :&lt;br&gt;&lt;div&gt;Nama, Tanggal lahir, email, password email, nomo telepon&amp;nbsp;&lt;/div&gt;" style="shape=parallelogram;html=1;strokeWidth=2;perimeter=parallelogramPerimeter;whiteSpace=wrap;rounded=1;arcSize=12;size=0.23;" parent="1" vertex="1">
          <mxGeometry x="-190" y="360" width="490" height="60" as="geometry" />
        </mxCell>
        <mxCell id="0XBhOKkoEBxMwg9nU0cD-18" style="edgeStyle=orthogonalEdgeStyle;rounded=0;orthogonalLoop=1;jettySize=auto;html=1;entryX=0;entryY=0.5;entryDx=0;entryDy=0;" parent="1" source="0XBhOKkoEBxMwg9nU0cD-14" target="0XBhOKkoEBxMwg9nU0cD-16" edge="1">
          <mxGeometry relative="1" as="geometry" />
        </mxCell>
        <mxCell id="0XBhOKkoEBxMwg9nU0cD-14" value="print &quot;registrasi sukses&quot;" style="shape=parallelogram;perimeter=parallelogramPerimeter;whiteSpace=wrap;html=1;fixedSize=1;strokeWidth=2;rounded=1;arcSize=12;" parent="1" vertex="1">
          <mxGeometry x="-47.5" y="470" width="205" height="60" as="geometry" />
        </mxCell>
        <mxCell id="0XBhOKkoEBxMwg9nU0cD-20" value="" style="edgeStyle=orthogonalEdgeStyle;rounded=0;orthogonalLoop=1;jettySize=auto;html=1;" parent="1" source="0XBhOKkoEBxMwg9nU0cD-16" target="0XBhOKkoEBxMwg9nU0cD-19" edge="1">
          <mxGeometry relative="1" as="geometry" />
        </mxCell>
        <mxCell id="0XBhOKkoEBxMwg9nU0cD-16" value="sign in" style="whiteSpace=wrap;html=1;strokeWidth=2;" parent="1" vertex="1">
          <mxGeometry x="370" y="470" width="120" height="60" as="geometry" />
        </mxCell>
        <mxCell id="0XBhOKkoEBxMwg9nU0cD-22" value="" style="edgeStyle=orthogonalEdgeStyle;rounded=0;orthogonalLoop=1;jettySize=auto;html=1;" parent="1" source="0XBhOKkoEBxMwg9nU0cD-19" target="0XBhOKkoEBxMwg9nU0cD-21" edge="1">
          <mxGeometry relative="1" as="geometry" />
        </mxCell>
        <mxCell id="0XBhOKkoEBxMwg9nU0cD-19" value="input :&lt;br&gt;email dan pass email" style="shape=parallelogram;perimeter=parallelogramPerimeter;whiteSpace=wrap;html=1;fixedSize=1;strokeWidth=2;" parent="1" vertex="1">
          <mxGeometry x="355" y="580" width="150" height="60" as="geometry" />
        </mxCell>
        <mxCell id="0XBhOKkoEBxMwg9nU0cD-24" value="ya" style="edgeStyle=orthogonalEdgeStyle;rounded=0;orthogonalLoop=1;jettySize=auto;html=1;" parent="1" source="0XBhOKkoEBxMwg9nU0cD-21" target="0XBhOKkoEBxMwg9nU0cD-23" edge="1">
          <mxGeometry relative="1" as="geometry" />
        </mxCell>
        <mxCell id="0XBhOKkoEBxMwg9nU0cD-21" value="email dan pass email benar" style="rhombus;whiteSpace=wrap;html=1;strokeWidth=2;" parent="1" vertex="1">
          <mxGeometry x="320" y="680" width="220" height="80" as="geometry" />
        </mxCell>
        <mxCell id="0XBhOKkoEBxMwg9nU0cD-27" value="" style="edgeStyle=orthogonalEdgeStyle;rounded=0;orthogonalLoop=1;jettySize=auto;html=1;" parent="1" source="0XBhOKkoEBxMwg9nU0cD-23" target="0XBhOKkoEBxMwg9nU0cD-26" edge="1">
          <mxGeometry relative="1" as="geometry" />
        </mxCell>
        <mxCell id="0XBhOKkoEBxMwg9nU0cD-23" value="menentukan tanggal" style="shape=parallelogram;perimeter=parallelogramPerimeter;whiteSpace=wrap;html=1;fixedSize=1;strokeWidth=2;" parent="1" vertex="1">
          <mxGeometry x="345" y="810" width="170" height="50" as="geometry" />
        </mxCell>
        <mxCell id="0XBhOKkoEBxMwg9nU0cD-25" value="tidak" style="edgeStyle=orthogonalEdgeStyle;rounded=0;orthogonalLoop=1;jettySize=auto;html=1;" parent="1" source="0XBhOKkoEBxMwg9nU0cD-21" edge="1">
          <mxGeometry relative="1" as="geometry">
            <mxPoint x="492" y="494" as="targetPoint" />
            <Array as="points">
              <mxPoint x="650" y="720" />
              <mxPoint x="650" y="494" />
            </Array>
          </mxGeometry>
        </mxCell>
        <mxCell id="0XBhOKkoEBxMwg9nU0cD-29" value="" style="edgeStyle=orthogonalEdgeStyle;rounded=0;orthogonalLoop=1;jettySize=auto;html=1;" parent="1" source="0XBhOKkoEBxMwg9nU0cD-26" target="0XBhOKkoEBxMwg9nU0cD-28" edge="1">
          <mxGeometry relative="1" as="geometry" />
        </mxCell>
        <mxCell id="0XBhOKkoEBxMwg9nU0cD-26" value="menentukan hotel tujuan&amp;nbsp;" style="shape=parallelogram;perimeter=parallelogramPerimeter;whiteSpace=wrap;html=1;fixedSize=1;strokeWidth=2;" parent="1" vertex="1">
          <mxGeometry x="320" y="900" width="220" height="45" as="geometry" />
        </mxCell>
        <mxCell id="sqASYKX8PagT-bv-Q4SQ-2" style="edgeStyle=orthogonalEdgeStyle;rounded=0;orthogonalLoop=1;jettySize=auto;html=1;entryX=0;entryY=0.5;entryDx=0;entryDy=0;" parent="1" source="0XBhOKkoEBxMwg9nU0cD-28" target="sqASYKX8PagT-bv-Q4SQ-1" edge="1">
          <mxGeometry relative="1" as="geometry" />
        </mxCell>
        <mxCell id="0XBhOKkoEBxMwg9nU0cD-28" value="memesan kamar" style="shape=parallelogram;perimeter=parallelogramPerimeter;whiteSpace=wrap;html=1;fixedSize=1;strokeWidth=2;" parent="1" vertex="1">
          <mxGeometry x="342.5" y="980" width="175" height="40" as="geometry" />
        </mxCell>
        <mxCell id="sqASYKX8PagT-bv-Q4SQ-4" value="" style="edgeStyle=orthogonalEdgeStyle;rounded=0;orthogonalLoop=1;jettySize=auto;html=1;" parent="1" source="sqASYKX8PagT-bv-Q4SQ-1" target="sqASYKX8PagT-bv-Q4SQ-3" edge="1">
          <mxGeometry relative="1" as="geometry" />
        </mxCell>
        <mxCell id="sqASYKX8PagT-bv-Q4SQ-1" value="cek kesediaan kamar" style="rounded=1;whiteSpace=wrap;html=1;absoluteArcSize=1;arcSize=14;strokeWidth=2;" parent="1" vertex="1">
          <mxGeometry x="590" y="980" width="100" height="40" as="geometry" />
        </mxCell>
        <mxCell id="sqASYKX8PagT-bv-Q4SQ-6" value="ya" style="edgeStyle=orthogonalEdgeStyle;rounded=0;orthogonalLoop=1;jettySize=auto;html=1;" parent="1" source="sqASYKX8PagT-bv-Q4SQ-3" target="sqASYKX8PagT-bv-Q4SQ-5" edge="1">
          <mxGeometry relative="1" as="geometry" />
        </mxCell>
        <mxCell id="GU_X4AUS1Dnj0P8QR5CS-1" value="tidak" style="edgeStyle=orthogonalEdgeStyle;rounded=0;orthogonalLoop=1;jettySize=auto;html=1;entryX=0.5;entryY=1;entryDx=0;entryDy=0;" parent="1" source="sqASYKX8PagT-bv-Q4SQ-3" target="0XBhOKkoEBxMwg9nU0cD-28" edge="1">
          <mxGeometry relative="1" as="geometry" />
        </mxCell>
        <mxCell id="sqASYKX8PagT-bv-Q4SQ-3" value="Tersedia" style="rhombus;whiteSpace=wrap;html=1;rounded=1;arcSize=14;strokeWidth=2;" parent="1" vertex="1">
          <mxGeometry x="600" y="1060" width="80" height="60" as="geometry" />
        </mxCell>
        <mxCell id="sqASYKX8PagT-bv-Q4SQ-8" value="" style="edgeStyle=orthogonalEdgeStyle;rounded=0;orthogonalLoop=1;jettySize=auto;html=1;" parent="1" source="sqASYKX8PagT-bv-Q4SQ-5" target="sqASYKX8PagT-bv-Q4SQ-7" edge="1">
          <mxGeometry relative="1" as="geometry" />
        </mxCell>
        <mxCell id="sqASYKX8PagT-bv-Q4SQ-5" value="hitung biaya" style="whiteSpace=wrap;html=1;rounded=1;arcSize=14;strokeWidth=2;" parent="1" vertex="1">
          <mxGeometry x="580" y="1170" width="120" height="60" as="geometry" />
        </mxCell>
        <mxCell id="GU_X4AUS1Dnj0P8QR5CS-16" style="edgeStyle=orthogonalEdgeStyle;rounded=0;orthogonalLoop=1;jettySize=auto;html=1;entryX=0.5;entryY=0;entryDx=0;entryDy=0;" parent="1" source="sqASYKX8PagT-bv-Q4SQ-7" target="GU_X4AUS1Dnj0P8QR5CS-15" edge="1">
          <mxGeometry relative="1" as="geometry" />
        </mxCell>
        <mxCell id="sqASYKX8PagT-bv-Q4SQ-7" value="persetujuan&amp;nbsp;" style="whiteSpace=wrap;html=1;rounded=1;arcSize=14;strokeWidth=2;" parent="1" vertex="1">
          <mxGeometry x="370" y="1170" width="120" height="60" as="geometry" />
        </mxCell>
        <mxCell id="sqASYKX8PagT-bv-Q4SQ-16" value="" style="edgeStyle=orthogonalEdgeStyle;rounded=0;orthogonalLoop=1;jettySize=auto;html=1;" parent="1" source="sqASYKX8PagT-bv-Q4SQ-11" target="sqASYKX8PagT-bv-Q4SQ-15" edge="1">
          <mxGeometry relative="1" as="geometry" />
        </mxCell>
        <mxCell id="sqASYKX8PagT-bv-Q4SQ-11" value="proses pembayaran" style="whiteSpace=wrap;html=1;rounded=1;arcSize=14;strokeWidth=2;" parent="1" vertex="1">
          <mxGeometry x="700" y="1560" width="120" height="60" as="geometry" />
        </mxCell>
        <mxCell id="sqASYKX8PagT-bv-Q4SQ-18" value="" style="edgeStyle=orthogonalEdgeStyle;rounded=0;orthogonalLoop=1;jettySize=auto;html=1;" parent="1" source="sqASYKX8PagT-bv-Q4SQ-15" target="sqASYKX8PagT-bv-Q4SQ-17" edge="1">
          <mxGeometry relative="1" as="geometry" />
        </mxCell>
        <mxCell id="sqASYKX8PagT-bv-Q4SQ-15" value="bukti pembayaran melalui email&amp;nbsp;" style="shape=parallelogram;perimeter=parallelogramPerimeter;whiteSpace=wrap;html=1;fixedSize=1;rounded=1;arcSize=14;strokeWidth=2;" parent="1" vertex="1">
          <mxGeometry x="675" y="1660" width="170" height="60" as="geometry" />
        </mxCell>
        <mxCell id="sqASYKX8PagT-bv-Q4SQ-17" value="FINISH" style="ellipse;whiteSpace=wrap;html=1;rounded=1;arcSize=14;strokeWidth=2;" parent="1" vertex="1">
          <mxGeometry x="690" y="1760" width="140" height="50" as="geometry" />
        </mxCell>
        <mxCell id="GU_X4AUS1Dnj0P8QR5CS-19" value="" style="edgeStyle=orthogonalEdgeStyle;rounded=0;orthogonalLoop=1;jettySize=auto;html=1;" parent="1" source="GU_X4AUS1Dnj0P8QR5CS-15" target="GU_X4AUS1Dnj0P8QR5CS-18" edge="1">
          <mxGeometry relative="1" as="geometry" />
        </mxCell>
        <mxCell id="GU_X4AUS1Dnj0P8QR5CS-15" value="main menu :&amp;nbsp;&lt;div&gt;1. memilih hotel baru&lt;/div&gt;&lt;div&gt;&lt;span style=&quot;background-color: initial;&quot;&gt;2. setuju&lt;/span&gt;&lt;/div&gt;&lt;div&gt;&lt;span style=&quot;background-color: initial;&quot;&gt;3. keluar&lt;/span&gt;&lt;/div&gt;" style="shape=hexagon;perimeter=hexagonPerimeter2;whiteSpace=wrap;html=1;fixedSize=1;" parent="1" vertex="1">
          <mxGeometry x="360" y="1270" width="140" height="80" as="geometry" />
        </mxCell>
        <mxCell id="GU_X4AUS1Dnj0P8QR5CS-21" value="" style="edgeStyle=orthogonalEdgeStyle;rounded=0;orthogonalLoop=1;jettySize=auto;html=1;" parent="1" source="GU_X4AUS1Dnj0P8QR5CS-18" target="GU_X4AUS1Dnj0P8QR5CS-20" edge="1">
          <mxGeometry relative="1" as="geometry" />
        </mxCell>
        <mxCell id="GU_X4AUS1Dnj0P8QR5CS-18" value="input main menu" style="shape=parallelogram;perimeter=parallelogramPerimeter;whiteSpace=wrap;html=1;fixedSize=1;" parent="1" vertex="1">
          <mxGeometry x="520" y="1380" width="140" height="40" as="geometry" />
        </mxCell>
        <mxCell id="GU_X4AUS1Dnj0P8QR5CS-23" value="" style="edgeStyle=orthogonalEdgeStyle;rounded=0;orthogonalLoop=1;jettySize=auto;html=1;" parent="1" source="GU_X4AUS1Dnj0P8QR5CS-20" target="GU_X4AUS1Dnj0P8QR5CS-22" edge="1">
          <mxGeometry relative="1" as="geometry" />
        </mxCell>
        <mxCell id="GU_X4AUS1Dnj0P8QR5CS-26" value="ya" style="edgeStyle=orthogonalEdgeStyle;rounded=0;orthogonalLoop=1;jettySize=auto;html=1;entryX=0;entryY=0.5;entryDx=0;entryDy=0;" parent="1" source="GU_X4AUS1Dnj0P8QR5CS-20" target="0XBhOKkoEBxMwg9nU0cD-26" edge="1">
          <mxGeometry relative="1" as="geometry">
            <Array as="points">
              <mxPoint x="280" y="1500" />
              <mxPoint x="280" y="923" />
            </Array>
          </mxGeometry>
        </mxCell>
        <mxCell id="GU_X4AUS1Dnj0P8QR5CS-27" value="tidak" style="edgeStyle=orthogonalEdgeStyle;rounded=0;orthogonalLoop=1;jettySize=auto;html=1;" parent="1" source="GU_X4AUS1Dnj0P8QR5CS-20" target="GU_X4AUS1Dnj0P8QR5CS-22" edge="1">
          <mxGeometry relative="1" as="geometry" />
        </mxCell>
        <mxCell id="GU_X4AUS1Dnj0P8QR5CS-25" value="tidak" style="edgeStyle=orthogonalEdgeStyle;rounded=0;orthogonalLoop=1;jettySize=auto;html=1;" parent="1" source="GU_X4AUS1Dnj0P8QR5CS-22" target="GU_X4AUS1Dnj0P8QR5CS-24" edge="1">
          <mxGeometry relative="1" as="geometry" />
        </mxCell>
        <mxCell id="GU_X4AUS1Dnj0P8QR5CS-28" value="ya" style="edgeStyle=orthogonalEdgeStyle;rounded=0;orthogonalLoop=1;jettySize=auto;html=1;" parent="1" source="GU_X4AUS1Dnj0P8QR5CS-20" target="sqASYKX8PagT-bv-Q4SQ-11" edge="1">
          <mxGeometry relative="1" as="geometry" />
        </mxCell>
        <mxCell id="GU_X4AUS1Dnj0P8QR5CS-22" value="pilih 2" style="rhombus;whiteSpace=wrap;html=1;" parent="1" vertex="1">
          <mxGeometry x="720" y="1450" width="80" height="80" as="geometry" />
        </mxCell>
        <mxCell id="GU_X4AUS1Dnj0P8QR5CS-30" value="ya" style="edgeStyle=orthogonalEdgeStyle;rounded=0;orthogonalLoop=1;jettySize=auto;html=1;entryX=1;entryY=0.5;entryDx=0;entryDy=0;" parent="1" source="GU_X4AUS1Dnj0P8QR5CS-24" target="sqASYKX8PagT-bv-Q4SQ-17" edge="1">
          <mxGeometry relative="1" as="geometry">
            <Array as="points">
              <mxPoint x="910" y="1785" />
            </Array>
          </mxGeometry>
        </mxCell>
        <mxCell id="GU_X4AUS1Dnj0P8QR5CS-24" value="pilih 3" style="rhombus;whiteSpace=wrap;html=1;" parent="1" vertex="1">
          <mxGeometry x="880" y="1450" width="80" height="80" as="geometry" />
        </mxCell>
        <mxCell id="GU_X4AUS1Dnj0P8QR5CS-29" style="edgeStyle=orthogonalEdgeStyle;rounded=0;orthogonalLoop=1;jettySize=auto;html=1;exitX=1;exitY=1;exitDx=0;exitDy=0;entryX=0.754;entryY=0.625;entryDx=0;entryDy=0;entryPerimeter=0;" parent="1" source="GU_X4AUS1Dnj0P8QR5CS-24" target="GU_X4AUS1Dnj0P8QR5CS-24" edge="1">
          <mxGeometry relative="1" as="geometry" />
        </mxCell>
        <mxCell id="GU_X4AUS1Dnj0P8QR5CS-31" value="" style="edgeStyle=orthogonalEdgeStyle;rounded=0;orthogonalLoop=1;jettySize=auto;html=1;" parent="1" source="GU_X4AUS1Dnj0P8QR5CS-22" target="GU_X4AUS1Dnj0P8QR5CS-20" edge="1">
          <mxGeometry relative="1" as="geometry">
            <mxPoint x="660" y="1500" as="sourcePoint" />
            <mxPoint x="590" y="1570" as="targetPoint" />
          </mxGeometry>
        </mxCell>
        <mxCell id="GU_X4AUS1Dnj0P8QR5CS-20" value="pilih 1" style="rhombus;whiteSpace=wrap;html=1;" parent="1" vertex="1">
          <mxGeometry x="550" y="1450" width="80" height="80" as="geometry" />
        </mxCell>
      </root>
    </mxGraphModel>
  </diagram>
</mxfile>
